<svg width="32" height="32" viewBox="0 0 32 32" fill="none" xmlns="http://www.w3.org/2000/svg">
<g clip-path="url(#clip0_1176_16)">
<path d="M32 16C32 7.16344 24.8366 0 16 0C7.16344 0 0 7.16344 0 16C0 24.8366 7.16344 32 16 32C24.8366 32 32 24.8366 32 16Z" fill="#FFC300"/>
<path d="M22.0492 19.3715H8V20.6285H22.0492L19.7921 23.1112L20.6001 24L23.8327 20.4444C24.0558 20.1989 24.0558 19.8011 23.8327 19.5556L20.6001 16L19.7921 16.8888L22.0492 19.3715Z" fill="white"/>
<path d="M11.3999 8L8.16731 11.1112C7.94423 11.326 7.94423 11.674 8.16731 11.8888L11.3999 15L12.2079 14.2223L9.9508 12.05H24V10.95H9.9508L12.2079 8.77769L11.3999 8Z" fill="white"/>
</g>
<defs>
<clipPath id="clip0_1176_16">
<rect width="32" height="32" fill="white"/>
</clipPath>
</defs>
</svg>
